<svg width="15" height="14" viewBox="0 0 15 14" fill="none" xmlns="http://www.w3.org/2000/svg">
<path d="M7.87444 0.731321L9.44506 3.88759C9.56077 4.11627 9.78162 4.27507 10.0363 4.31036L13.5642 4.82417C13.7703 4.85311 13.9572 4.9618 14.0835 5.12766C14.2084 5.2914 14.262 5.4989 14.2317 5.70287C14.207 5.87226 14.1273 6.02894 14.0052 6.14893L11.4489 8.62694C11.2619 8.79986 11.1773 9.05606 11.2224 9.30661L11.8518 12.7904C11.9188 13.211 11.6401 13.6077 11.2224 13.6874C11.0503 13.7149 10.8739 13.686 10.7186 13.607L7.57175 11.9674C7.3382 11.8496 7.06232 11.8496 6.82878 11.9674L3.6819 13.607C3.29524 13.8123 2.81616 13.6726 2.60095 13.2915C2.52122 13.1397 2.493 12.9668 2.51911 12.7981L3.14848 9.31367C3.19364 9.06382 3.10826 8.80621 2.92199 8.63329L0.365683 6.15669C0.061579 5.86309 0.0524065 5.37962 0.345221 5.07543C0.351572 5.06908 0.358627 5.06202 0.365683 5.05496C0.487043 4.93145 0.646503 4.85311 0.818664 4.83264L4.34655 4.31812C4.60056 4.28213 4.82141 4.12474 4.93783 3.89465L6.452 0.731321C6.58676 0.4603 6.86617 0.291617 7.16957 0.298675H7.26412C7.5273 0.330435 7.75661 0.493472 7.87444 0.731321Z" fill="#1E222B"/>
</svg>
