<svg width="26" height="26" viewBox="0 0 26 26" fill="none" xmlns="http://www.w3.org/2000/svg">
<mask id="mask0_1_1418" style="mask-type:luminance" maskUnits="userSpaceOnUse" x="1" y="1" width="24" height="24">
<path fill-rule="evenodd" clip-rule="evenodd" d="M1.0835 1.08368H24.3676V24.3686H1.0835V1.08368Z" fill="white"/>
</mask>
<g mask="url(#mask0_1_1418)">
<path fill-rule="evenodd" clip-rule="evenodd" d="M6.61764 21.3149C7.24597 21.3149 7.83855 21.5533 8.4658 21.8057C12.3084 23.5823 16.853 22.7742 19.8137 19.8145C23.7202 15.9058 23.7202 9.54776 19.8137 5.64126C17.9222 3.74976 15.4067 2.70868 12.7287 2.70868C10.0496 2.70868 7.53305 3.75085 5.64264 5.64235C2.6808 8.60201 1.8748 13.1466 3.63522 16.9523C3.88872 17.5796 4.13355 18.1906 4.13355 18.8254C4.13355 19.4592 3.9158 20.0973 3.72405 20.6606C3.56589 21.1243 3.32647 21.8241 3.4803 21.9779C3.63089 22.1339 4.33505 21.888 4.7998 21.7288C5.35772 21.5381 5.99039 21.3193 6.61764 21.3149ZM12.7016 24.3688C11.0463 24.3688 9.38014 24.0189 7.82122 23.2974C7.36189 23.1133 6.9318 22.9399 6.62305 22.9399C6.26772 22.9421 5.78997 23.1068 5.32847 23.266C4.38164 23.591 3.20297 23.9962 2.33089 23.1273C1.46205 22.2574 1.86289 21.082 2.18572 20.1363C2.34497 19.6704 2.50855 19.1894 2.50855 18.8254C2.50855 18.5264 2.36447 18.1451 2.14347 17.5958C0.114386 13.2138 1.05255 7.93251 4.4943 4.49293C6.6913 2.29485 9.61522 1.08368 12.7276 1.08368C15.8401 1.08368 18.7651 2.29376 20.9621 4.49185C25.5034 9.03318 25.5034 16.4215 20.9621 20.9628C18.7358 23.1902 15.7382 24.3688 12.7016 24.3688Z" fill="#FAFBFD"/>
</g>
<path fill-rule="evenodd" clip-rule="evenodd" d="M17.0047 14.2599C16.4067 14.2599 15.917 13.7757 15.917 13.1766C15.917 12.5775 16.3969 12.0933 16.9949 12.0933H17.0047C17.6027 12.0933 18.088 12.5775 18.088 13.1766C18.088 13.7757 17.6027 14.2599 17.0047 14.2599Z" fill="#FAFBFD"/>
<path fill-rule="evenodd" clip-rule="evenodd" d="M12.6614 14.2599C12.0634 14.2599 11.5737 13.7757 11.5737 13.1766C11.5737 12.5775 12.0526 12.0933 12.6516 12.0933H12.6614C13.2594 12.0933 13.7447 12.5775 13.7447 13.1766C13.7447 13.7757 13.2594 14.2599 12.6614 14.2599Z" fill="#FAFBFD"/>
<path fill-rule="evenodd" clip-rule="evenodd" d="M8.31814 14.2599C7.72014 14.2599 7.23047 13.7757 7.23047 13.1766C7.23047 12.5775 7.71039 12.0933 8.30839 12.0933H8.31814C8.91614 12.0933 9.40147 12.5775 9.40147 13.1766C9.40147 13.7757 8.91614 14.2599 8.31814 14.2599Z" fill="#FAFBFD"/>
</svg>
