<svg width="22" height="22" viewBox="0 0 22 22" fill="none" xmlns="http://www.w3.org/2000/svg">
<circle cx="11" cy="11" r="10.5" stroke="#F9B023"/>
<g clip-path="url(#clip0_1_1136)">
<path d="M14.5 10.5H11.5V7.5C11.5 7.36739 11.4473 7.24021 11.3536 7.14645C11.2598 7.05268 11.1326 7 11 7C10.8674 7 10.7402 7.05268 10.6464 7.14645C10.5527 7.24021 10.5 7.36739 10.5 7.5V10.5H7.5C7.36739 10.5 7.24021 10.5527 7.14645 10.6464C7.05268 10.7402 7 10.8674 7 11C7 11.1326 7.05268 11.2598 7.14645 11.3536C7.24021 11.4473 7.36739 11.5 7.5 11.5H10.5V14.5C10.5 14.6326 10.5527 14.7598 10.6464 14.8536C10.7402 14.9473 10.8674 15 11 15C11.1326 15 11.2598 14.9473 11.3536 14.8536C11.4473 14.7598 11.5 14.6326 11.5 14.5V11.5H14.5C14.6326 11.5 14.7598 11.4473 14.8536 11.3536C14.9473 11.2598 15 11.1326 15 11C15 10.8674 14.9473 10.7402 14.8536 10.6464C14.7598 10.5527 14.6326 10.5 14.5 10.5Z" fill="#F9B023"/>
</g>
<defs>
<clipPath id="clip0_1_1136">
<rect x="5" y="5" width="12" height="12" rx="6" fill="white"/>
</clipPath>
</defs>
</svg>
