<svg width="8" height="8" viewBox="0 0 8 8" fill="none" xmlns="http://www.w3.org/2000/svg">
<path d="M7.49999 3.5H4.49999V0.5C4.49999 0.367392 4.44731 0.240215 4.35355 0.146447C4.25978 0.0526785 4.1326 0 3.99999 0C3.86738 0 3.74021 0.0526785 3.64644 0.146447C3.55267 0.240215 3.49999 0.367392 3.49999 0.5V3.5H0.499992C0.367384 3.5 0.240207 3.55268 0.146439 3.64645C0.0526709 3.74021 -7.62939e-06 3.86739 -7.62939e-06 4C-7.62939e-06 4.13261 0.0526709 4.25979 0.146439 4.35355C0.240207 4.44732 0.367384 4.5 0.499992 4.5H3.49999V7.5C3.49999 7.63261 3.55267 7.75979 3.64644 7.85355C3.74021 7.94732 3.86738 8 3.99999 8C4.1326 8 4.25978 7.94732 4.35355 7.85355C4.44731 7.75979 4.49999 7.63261 4.49999 7.5V4.5H7.49999C7.6326 4.5 7.75978 4.44732 7.85355 4.35355C7.94731 4.25979 7.99999 4.13261 7.99999 4C7.99999 3.86739 7.94731 3.74021 7.85355 3.64645C7.75978 3.55268 7.6326 3.5 7.49999 3.5Z" fill="white"/>
</svg>
