<svg width="101" height="18" viewBox="0 0 101 18" fill="none" xmlns="http://www.w3.org/2000/svg">
<path d="M12.6402 10.6367C12.4575 10.8138 12.3735 11.0699 12.4151 11.321L13.0423 14.7917C13.0952 15.0858 12.971 15.3835 12.7248 15.5535C12.4836 15.7299 12.1626 15.7511 11.8995 15.61L8.77515 13.9804C8.66651 13.9226 8.54588 13.8916 8.42243 13.888H8.23126C8.16495 13.8979 8.10005 13.9191 8.0408 13.9515L4.91576 15.5888C4.76127 15.6664 4.58633 15.6939 4.41491 15.6664C3.99729 15.5874 3.71865 15.1895 3.78708 14.7698L4.41491 11.2991C4.45653 11.0459 4.37258 10.7884 4.18988 10.6085L1.64258 8.13951C1.42954 7.93282 1.35547 7.62244 1.45282 7.34238C1.54735 7.06303 1.7886 6.85917 2.07995 6.81331L5.58591 6.3047C5.85257 6.27719 6.08677 6.11494 6.20669 5.8751L7.75157 2.70773C7.78826 2.63719 7.83552 2.57229 7.89266 2.51727L7.95615 2.46789C7.9893 2.4312 8.0274 2.40087 8.06972 2.37618L8.14661 2.34796L8.26654 2.29858H8.56352C8.82876 2.3261 9.06226 2.48482 9.18429 2.72184L10.7496 5.8751C10.8625 6.10577 11.0819 6.2659 11.3351 6.3047L14.8411 6.81331C15.1374 6.85564 15.385 7.06021 15.483 7.34238C15.5755 7.62526 15.4957 7.93565 15.2785 8.13951L12.6402 10.6367Z" fill="#F9B023"/>
<path d="M33.5704 10.6367C33.3876 10.8138 33.3037 11.0699 33.3453 11.321L33.9724 14.7917C34.0254 15.0858 33.9012 15.3835 33.655 15.5535C33.4137 15.7299 33.0928 15.7511 32.8297 15.61L29.7053 13.9804C29.5967 13.9226 29.4761 13.8916 29.3526 13.888H29.1614C29.0951 13.8979 29.0302 13.9191 28.971 13.9515L25.8459 15.5888C25.6914 15.6664 25.5165 15.6939 25.3451 15.6664C24.9275 15.5874 24.6488 15.1895 24.7173 14.7698L25.3451 11.2991C25.3867 11.0459 25.3028 10.7884 25.1201 10.6085L22.5728 8.13951C22.3597 7.93282 22.2856 7.62244 22.383 7.34238C22.4775 7.06303 22.7188 6.85917 23.0101 6.81331L26.5161 6.3047C26.7827 6.27719 27.0169 6.11494 27.1369 5.8751L28.6817 2.70773C28.7184 2.63719 28.7657 2.57229 28.8228 2.51727L28.8863 2.46789C28.9195 2.4312 28.9576 2.40087 28.9999 2.37618L29.0768 2.34796L29.1967 2.29858H29.4937C29.7589 2.3261 29.9924 2.48482 30.1145 2.72184L31.6798 5.8751C31.7927 6.10577 32.0121 6.2659 32.2653 6.3047L35.7713 6.81331C36.0676 6.85564 36.3152 7.06021 36.4132 7.34238C36.5056 7.62526 36.4259 7.93565 36.2086 8.13951L33.5704 10.6367Z" fill="#F9B023"/>
<path d="M54.5005 10.6367C54.3178 10.8138 54.2339 11.0699 54.2755 11.321L54.9026 14.7917C54.9555 15.0858 54.8314 15.3835 54.5852 15.5535C54.3439 15.7299 54.023 15.7511 53.7598 15.61L50.6355 13.9804C50.5269 13.9226 50.4062 13.8916 50.2828 13.888H50.0916C50.0253 13.8979 49.9604 13.9191 49.9012 13.9515L46.7761 15.5888C46.6216 15.6664 46.4467 15.6939 46.2753 15.6664C45.8576 15.5874 45.579 15.1895 45.6474 14.7698L46.2753 11.2991C46.3169 11.0459 46.2329 10.7884 46.0502 10.6085L43.5029 8.13951C43.2899 7.93282 43.2158 7.62244 43.3132 7.34238C43.4077 7.06303 43.649 6.85917 43.9403 6.81331L47.4463 6.3047C47.7129 6.27719 47.9471 6.11494 48.067 5.8751L49.6119 2.70773C49.6486 2.63719 49.6959 2.57229 49.753 2.51727L49.8165 2.46789C49.8497 2.4312 49.8877 2.40087 49.9301 2.37618L50.007 2.34796L50.1269 2.29858H50.4239C50.6891 2.3261 50.9226 2.48482 51.0446 2.72184L52.61 5.8751C52.7229 6.10577 52.9422 6.2659 53.1955 6.3047L56.7015 6.81331C56.9977 6.85564 57.2453 7.06021 57.3434 7.34238C57.4358 7.62526 57.3561 7.93565 57.1388 8.13951L54.5005 10.6367Z" fill="#F9B023"/>
<path d="M75.4307 10.6367C75.248 10.8138 75.1641 11.0699 75.2057 11.321L75.8328 14.7917C75.8857 15.0858 75.7616 15.3835 75.5154 15.5535C75.2741 15.7299 74.9531 15.7511 74.69 15.61L71.5657 13.9804C71.457 13.9226 71.3364 13.8916 71.213 13.888H71.0218C70.9555 13.8979 70.8906 13.9191 70.8313 13.9515L67.7063 15.5888C67.5518 15.6664 67.3769 15.6939 67.2054 15.6664C66.7878 15.5874 66.5092 15.1895 66.5776 14.7698L67.2054 11.2991C67.2471 11.0459 67.1631 10.7884 66.9804 10.6085L64.4331 8.13951C64.2201 7.93282 64.146 7.62244 64.2433 7.34238C64.3379 7.06303 64.5791 6.85917 64.8705 6.81331L68.3764 6.3047C68.6431 6.27719 68.8773 6.11494 68.9972 5.8751L70.5421 2.70773C70.5788 2.63719 70.626 2.57229 70.6832 2.51727L70.7467 2.46789C70.7798 2.4312 70.8179 2.40087 70.8602 2.37618L70.9371 2.34796L71.0571 2.29858H71.354C71.6193 2.3261 71.8528 2.48482 71.9748 2.72184L73.5402 5.8751C73.653 6.10577 73.8724 6.2659 74.1257 6.3047L77.6316 6.81331C77.9279 6.85564 78.1755 7.06021 78.2736 7.34238C78.366 7.62526 78.2863 7.93565 78.069 8.13951L75.4307 10.6367Z" fill="#F9B023"/>
<path d="M92.8745 2.73132L94.4451 5.88759C94.5608 6.11627 94.7817 6.27507 95.0364 6.31036L98.5643 6.82417C98.7703 6.85311 98.9573 6.9618 99.0836 7.12766C99.2085 7.2914 99.2621 7.4989 99.2318 7.70287C99.2071 7.87226 99.1273 8.02894 99.0053 8.14893L96.449 10.6269C96.262 10.7999 96.1773 11.0561 96.2225 11.3066L96.8518 14.7904C96.9189 15.211 96.6402 15.6077 96.2225 15.6874C96.0503 15.7149 95.8739 15.686 95.7187 15.607L92.5718 13.9674C92.3383 13.8496 92.0624 13.8496 91.8288 13.9674L88.682 15.607C88.2953 15.8123 87.8162 15.6726 87.601 15.2915C87.5213 15.1397 87.4931 14.9668 87.5192 14.7981L88.1485 11.3137C88.1937 11.0638 88.1083 10.8062 87.9221 10.6333L85.3657 8.15669C85.0616 7.86309 85.0525 7.37962 85.3453 7.07543C85.3516 7.06908 85.3587 7.06202 85.3657 7.05496C85.4871 6.93145 85.6466 6.85311 85.8187 6.83264L89.3466 6.31812C89.6006 6.28213 89.8215 6.12474 89.9379 5.89465L91.4521 2.73132C91.5868 2.4603 91.8662 2.29162 92.1696 2.29868H92.2642C92.5274 2.33044 92.7567 2.49347 92.8745 2.73132Z" fill="#1E222B"/>
<path d="M92.1802 13.8795C92.0435 13.8838 91.9104 13.9205 91.7907 13.9861L88.6592 15.6219C88.276 15.8048 87.8175 15.6629 87.6027 15.2965C87.5231 15.1468 87.4942 14.9752 87.521 14.8072L88.1464 11.3301C88.1887 11.0774 88.1042 10.8204 87.9203 10.6425L85.3629 8.16653C85.0593 7.86931 85.0537 7.38146 85.3509 7.07717C85.3551 7.07293 85.3586 7.0694 85.3629 7.06587C85.484 6.94585 85.6404 6.86678 85.8087 6.84207L89.3396 6.32245C89.5952 6.28997 89.8171 6.13042 89.9298 5.89885L91.4646 2.6957C91.6103 2.4373 91.89 2.28339 92.1858 2.29963C92.1802 2.50931 92.1802 13.7369 92.1802 13.8795Z" fill="#F9B023"/>
</svg>
