<svg width="15" height="14" viewBox="0 0 15 14" fill="none" xmlns="http://www.w3.org/2000/svg">
<path d="M11.4308 8.63672C11.2481 8.81379 11.1641 9.06986 11.2057 9.32099L11.8329 12.7917C11.8858 13.0858 11.7616 13.3835 11.5154 13.5535C11.2742 13.7299 10.9532 13.7511 10.6901 13.61L7.56574 11.9804C7.4571 11.9226 7.33647 11.8916 7.21302 11.888H7.02185C6.95554 11.8979 6.89064 11.9191 6.83139 11.9515L3.70635 13.5888C3.55186 13.6664 3.37691 13.6939 3.2055 13.6664C2.78788 13.5874 2.50924 13.1895 2.57767 12.7698L3.2055 9.29912C3.24712 9.04587 3.16317 8.78839 2.98046 8.60851L0.43317 6.13951C0.220131 5.93282 0.146061 5.62244 0.24341 5.34238C0.337937 5.06303 0.579193 4.85917 0.870534 4.81331L4.3765 4.3047C4.64315 4.27719 4.87736 4.11494 4.99728 3.8751L6.54216 0.707731C6.57884 0.637189 6.62611 0.572289 6.68325 0.517266L6.74674 0.467886C6.77989 0.431204 6.81798 0.400871 6.86031 0.376181L6.9372 0.347964L7.05712 0.298584H7.35411C7.61935 0.326096 7.85284 0.484817 7.97488 0.72184L9.54022 3.8751C9.65309 4.10577 9.87248 4.2659 10.1257 4.3047L13.6317 4.81331C13.928 4.85564 14.1756 5.06021 14.2736 5.34238C14.366 5.62526 14.2863 5.93565 14.0691 6.13951L11.4308 8.63672Z" fill="#F9B023"/>
</svg>
